<?xml version="1.0" encoding="UTF-8"?><svg id="a" xmlns="http://www.w3.org/2000/svg" viewBox="0 0 110.65 404.11"><defs><style>.b{stroke-width:0px;}</style></defs><path class="b" d="M55.8,234.83c-1.66,19.37-2.83,26.34-5.66,53.17-.05.43.88,13.81.94,14.24,3.82,24.79-2.82,45.53-3.76,69.29-.32,8.17-1.5,15.49,1.59,23.71.49,1.3,2.85,6.16,1.41,6.53-4.76,1.24-3.88,2.65-10.41,2.29-1.13-.06-4.89-.26-5.47-1.24-1.64-2.76-7.91.93-8.29-4.59-4.35-4,5.65-4.59,8.47-8.35s1.72-12.07,1.18-16.82c-2.48-25.9-11.18-38-7.06-76.12.47-12.59-4.24-24.24-5.18-32-1.87-15.46-3.76-27.76-6.47-45.88-.81-5.42-.82-3.18-2-7.18-.4-1.36-1.53-1.77-1.53-.35,0,3.29-1.53,4.35-.97,7.09s.74,3.86,2.03,6.68c.44.97.35,2.82-1.53,4-.7.44-3.08-.63-3.76-1.53-4.47-5.88-5.41-7.29-8.24-12.47-1.94-3.55-.94-6.59.47-14.59.22-1.24,1.7-8.64,1.88-9.88,1.42-9.48,1.24-14.42,1.55-24.75.65-21.79,5.41-33.41,5.71-51.51,1.07-9.38.42-18.95,1.48-28.33.63-5.61,1.85-11.91,5.02-16.28,3.91-5.4,8.89-8.98,9.79-15.31,4.34-9.44,10.12-20.79,11.65-31.12C40.91,7.98,42.84.89,58.37,0M18.73,176.59l4.94-11.65,3.53-9.18c4.24-15.53.35-23.29-1.71-33.71-.52-2.65-1.45,10.13-4.06,25.24-1.76,10.24-5.71,21.08-6.53,25.59-1.41,7.76-1.59,13.76.18,24.71.7-10.51-.24-9.35,3.65-21ZM57.43.24c11.76,0,17,9.62,19.29,25.18,1.53,10.32,5.07,23.97,9.41,33.41.94,5.18,3.42,5.68,7.33,11.07,3.17,4.37,4.38,10.67,5.02,16.28,1.06,9.38.4,18.95,1.48,28.33.3,18.1,5.06,29.72,5.71,51.51.31,10.33.13,15.27,1.55,24.75.19,1.24,1.66,8.65,1.88,9.88,1.41,8,2.41,11.04.47,14.59-2.82,5.18-3.76,6.59-8.24,12.47-.68.9-3.06,1.97-3.76,1.53-1.88-1.18-1.97-3.03-1.53-4,1.29-2.82,1.5-4.06,2.03-6.68s-.97-3.79-.97-7.09c0-1.42-1.13-1.01-1.53.35-1.18,4-.75,1.84-2,7.18-4.02,17.23-4.14,27.82-7.9,48.76-1.02,5.68-.94,8-3.76,24,2.35,21.18,5.65,35.29-6.82,82.88-.59,6.27.24,6.29.94,10.53.02.13-.24,6.12,2.35,10.59.94,4.71-.24,5.18-2.59,6.82-.78.54-3,.71-5.88.71-4.94,0-6.82.71-8.71-2.12-.82-1.23-.59-3.94.47-8,1.41-3.88,2.61-14.46,1.76-22.59-1.94-18.64-7.26-46.33-1.76-79.29.94-5.65-.88-11.34-.94-11.76-3.29-21.65-6-38.71-5.41-60.94M94.85,198.59c1.76-10.94,2.31-18,.9-25.76-.82-4.51-4.88-15.33-6.53-25.59-2.6-16.18-3.06-31.2-3.43-28.53-2.47,18-6.32,19.36-4.59,34.94.71,6.35,4.95,12.73,8.82,20.47,1.53,3.06,2.94,8.71,2.94,8.71,1.18,7.29,1.18,5.26,1.88,15.76Z"/></svg>