<?xml version="1.0" encoding="UTF-8"?><svg id="a" xmlns="http://www.w3.org/2000/svg" viewBox="0 0 73.67 180.55"><defs><style>.b{stroke-width:0px;}</style></defs><path class="b" d="M33.71,0c1.33,0,2.66,0,3.99,0,.15.11.29.28.46.32,10.56,2.32,16.04,9.04,16.24,19.78.03,1.45.48,2.93.91,4.34,1.03,3.37.29,6.33-1.79,9.08-2.08,2.75-4.11,5.53-6.58,8.87,4.26,1.7,8.12,3.42,12.11,4.78,3.83,1.32,6.52,3.78,7.41,7.59,1.49,6.45,2.53,13,3.75,19.5.44,2.32.72,4.67,1.32,6.94,1.61,6.02,2.19,12.08,1.66,18.3-.23,2.69-.65,5.59.08,8.08,1.62,5.48-1.85,10.57-6.53,13.1-1.59.86-2.17.07-1.99-1.41.18-1.47.59-2.91.87-4.27-1,.27-2.11.92-2.56.61-.59-.4-.96-1.58-.91-2.39.21-3.19.62-6.36.95-9.54.08-.75.3-1.56.1-2.24-1.23-4.2-2.56-8.37-3.86-12.54-.26-.02-.52-.04-.79-.06-.2,3.69-.83,7.42-.49,11.06.4,4.41,1.93,8.71,2.41,13.11.56,5.16.23,10.43.8,15.59,1.16,10.47-.29,20.57-3.6,30.46-2.34,7.02.19,9.02,4.6,12.5,3.25,6.27-1.62,7.19-4.53,7.69-3.23.56-9.1.9-11.95-.73-.16-.09-1.62-1.62-3.25-5.34-.86-1.96-.7-3.95-.68-5.83.03-3.67,1-7.29,1.31-10.95.34-4.04.49-8.1.7-12.16.04-.75.02-1.52-.13-2.25-.59-2.76-1.17-5.52-1.89-8.25-1.19-4.54-2.47-9.05-3.78-13.82-2-.58-3.15.01-3.12,2.74.02,1.54-2.3,7.6-2.39,9.21-.32,6.06-3.64,12.14-1.73,18.36.13.43.02.94.02,1.42.04,5.49-.34,11,1.57,16.34.65,1.82,2.1,3.87.14,4.96-2.32,5.11,1.62,6.27-7.66,7.43-.57,0-8.12,1.39-11.84-3.48.74-7.08,3.28-7.41,4.87-8.59.93-2.55.61-3.62-.48-6-4.38-9.56-5.46-19.79-5.39-30.17.02-3.12.17-6.25.47-9.36.64-6.48,1.16-13,2.22-19.42.8-4.86,1.02-9.49-1.16-14.3-1.26,4.59-2.45,8.9-3.6,13.23-.11.41.1.91.16,1.36.43,3.27.95,6.54,1.25,9.82.08.91-.25,2.09-.85,2.71-.31.32-1.61-.33-2.64-.58.29,1.24.66,2.42.8,3.62.08.67-.21,1.38-.33,2.07-.6-.15-1.26-.18-1.78-.46-5.54-2.96-7.3-6.91-6.27-13.15.39-2.4.5-4.94.17-7.33-.89-6.48-.74-12.83,1.23-19.11.53-1.71.87-3.5,1.09-5.27.62-4.88,1.12-9.78,1.69-14.67.92-7.91,4.59-13.41,12.8-15.39,2.75-.66,5.27-2.24,7.99-3.44-2.08-2.98-3.49-5.76-5.59-7.82-3.02-2.97-4.29-6.66-2.87-10.63.27-.75.27-1.67.17-2.48-1.19-8.96,3.69-17.2,12.09-20.24,1.49-.54,3.06-.88,4.59-1.31Z"/></svg>